<!DOCTYPE svg PUBLIC "-//W3C//DTD SVG 1.1//EN" "http://www.w3.org/Graphics/SVG/1.1/DTD/svg11.dtd">
<!-- Uploaded to: SVG Repo, www.svgrepo.com, Transformed by: SVG Repo Mixer Tools -->
<svg fill="#000000" version="1.1" id="Capa_1" xmlns="http://www.w3.org/2000/svg" xmlns:xlink="http://www.w3.org/1999/xlink" width="64px" height="64px" viewBox="-10.35 -10.35 124.24 124.24" xml:space="preserve" stroke="#000000" stroke-width="10.3536">
<g id="SVGRepo_bgCarrier" stroke-width="0"/>
<g id="SVGRepo_tracerCarrier" stroke-linecap="round" stroke-linejoin="round" stroke="#CCCCCC" stroke-width="20.7072"> <g> <g> <path d="M0.65,91.928c1.221,2.701,3.881,4.3,6.665,4.3c1.006,0,2.029-0.209,3.006-0.65l88.917-40.195 c2.688-1.216,4.381-3.925,4.295-6.873c-0.085-2.948-1.934-5.554-4.687-6.609L9.929,7.794C6.17,6.352,1.933,8.23,0.489,12.001 c-1.447,3.769,0.438,7.995,4.207,9.44l72.569,27.834L4.299,82.255C0.62,83.92-1.012,88.249,0.65,91.928z"/> </g> </g> </g>
<g id="SVGRepo_iconCarrier"> <g> <g> <path d="M0.65,91.928c1.221,2.701,3.881,4.3,6.665,4.3c1.006,0,2.029-0.209,3.006-0.65l88.917-40.195 c2.688-1.216,4.381-3.925,4.295-6.873c-0.085-2.948-1.934-5.554-4.687-6.609L9.929,7.794C6.17,6.352,1.933,8.23,0.489,12.001 c-1.447,3.769,0.438,7.995,4.207,9.44l72.569,27.834L4.299,82.255C0.62,83.92-1.012,88.249,0.65,91.928z"/> </g> </g> </g>
</svg>